<svg version="1.1" id="Layer_1" xmlns="http://www.w3.org/2000/svg" x="0" y="0" viewBox="0 0 2036 1000" xml:space="preserve"><style>.st0{fill:#820000}.st1{fill:#ec7a08}.st2{fill:#0088ce}.st3{fill:#3f9c35}</style><path class="st0" d="M189.8 350.9H238v48.2h-48.2z"/><path class="st1" d="M238 434.6h96.3v48.2H238z"/><path class="st2" d="M189.8 602.2h96.3v48.2h-96.3z"/><path class="st3" d="M141.7 518.5h48.2v48.2h-48.2z"/><path class="st0" d="M273.7 350.9H370v48.2h-96.3z"/><path class="st1" d="M370 434.6h48.2v48.2H370z"/><path class="st2" d="M321.9 602.2h48.2v48.2h-48.2z"/><path class="st3" d="M225.6 518.5h96.3v48.2h-96.3z"/><path fill="#c00" d="M370 350.9h144.5v48.2H370z"/><path fill="#f0ab00" d="M418.2 434.6h144.5v48.2H418.2z"/><path fill="#00b9e4" d="M370 602.2h96.3v48.2H370z"/><path fill="#92d400" d="M321.9 518.5h192.7v48.2H321.9z"/><path d="M778.6 607.1c-3.8 10.1-9.1 18.4-15.8 24.8-6.8 6.4-14.9 11.2-23.8 14-9.5 3-19.4 4.4-29.4 4.4h-38.4V493.1h41.5c9.7-.1 19.4 1.4 28.6 4.5 8.5 2.9 16.3 7.6 22.7 14 6.7 6.9 11.8 15.1 15 24.2 3.6 9.7 5.4 21.3 5.4 34.8 0 14.2-2 26.4-5.8 36.5zM752.7 525c-9.4-10.6-23.2-15.9-41.3-15.9h-22.7v125.3h23.1c7.8.1 15.5-1.1 22.9-3.5 6.6-2.2 12.5-6 17.3-11.1 4.8-5.1 8.5-11.6 11-19.7s3.8-17.6 3.8-28.9c0-20.1-4.7-35.5-14.1-46.2zm66.2 125.3V493.1h95V509h-77.5v49.4h44.9v15.9h-44.9v60h80.8v15.9l-98.3.1zm194 0h-19.3l-53.4-157.2h18.4l35 107.6c.7 2.4 1.6 5.1 2.6 8.1s1.9 6 2.8 8.9c.9 2.9 1.7 5.7 2.5 8.2s1.3 4.5 1.8 5.8c.4-1.3 1-3.3 1.8-6 .7-2.7 1.6-5.5 2.6-8.4 1-3 1.9-6 2.9-9.1 1-3.1 1.8-5.7 2.6-8l35.2-107.1h18l-53.5 157.2zm86 0V493.1h95V509h-77.5v49.4h44.9v15.9h-44.9v60h80.8v15.9l-98.3.1zm131.9 0V493.1h17.5v141.2h77.7v15.9h-95.2zm242.5-46.1c-2.8 9.3-7.3 18-13.4 25.7-5.6 7.1-12.7 12.8-20.8 16.8-16.9 8-36.4 8.1-53.3.1-8-4-15-9.7-20.6-16.7-5.9-7.6-10.4-16.3-13.1-25.6-3.2-10.6-4.7-21.5-4.6-32.6-.1-11.1 1.5-22.1 4.7-32.7 2.8-9.3 7.3-18 13.2-25.7 5.6-7.1 12.6-12.8 20.7-16.8 16.9-8 36.4-8.1 53.3-.1 8 4 15 9.7 20.5 16.7 5.9 7.7 10.4 16.3 13.2 25.6 3.3 10.5 4.9 21.5 4.8 32.6.2 11.1-1.4 22.1-4.6 32.7zm-16.5-59.1c-2.2-7.4-5.6-14.4-10.2-20.7-4-5.5-9.3-10-15.3-13.2-5.9-3.1-12.4-4.7-19.1-4.6-6.5 0-13 1.5-18.8 4.6-5.9 3.2-11 7.6-14.9 13-4.5 6.2-7.8 13.1-9.9 20.4-2.5 8.7-3.7 17.8-3.6 26.8-.1 9.1 1.1 18.1 3.7 26.8 2.2 7.4 5.6 14.4 10.2 20.7 4 5.5 9.2 10 15.1 13.2 5.9 3.1 12.4 4.7 19.1 4.6 6.6 0 13-1.5 18.9-4.6 5.9-3.1 11-7.6 15-13 4.5-6.2 7.8-13.1 9.9-20.4 2.5-8.7 3.7-17.8 3.6-26.8.1-9-1.2-18.1-3.7-26.8zm160.8 15.7c-2.5 5.8-6.2 11-10.9 15.3-4.9 4.3-10.6 7.4-16.8 9.3-7 2.2-14.3 3.2-21.6 3.1h-38.2v61.8h-17.5V493.1h58.8c6.7-.1 13.4.9 19.9 2.8 5.8 1.7 11.2 4.7 15.8 8.6 4.6 4 8.2 9.1 10.6 14.7 5.1 13.5 5.1 28.3-.1 41.6zm-22.2-43.5c-5.7-5.5-13.9-8.2-24.7-8.2h-40.6v63.5h38.4c23.6 0 35.5-10.6 35.5-31.9 0-10.1-2.9-18-8.6-23.4zm55.9 133V493.1h95V509h-77.5v49.4h44.9v15.9h-44.9v60h80.8v15.9l-98.3.1zm232.9-83.1c-6.7 7.5-15.7 12.4-26.9 14.8l34.6 68.3h-20.2l-33.7-66.9h-37.3v66.9h-17.5V493.1h62.2c6.5-.1 13 .9 19.3 2.7 5.7 1.6 11 4.4 15.5 8.2 4.4 3.8 8 8.5 10.3 13.8 2.5 5.5 3.8 12.1 3.8 19.8 0 12.3-3.3 22.1-10.1 29.6zm-15.6-50.9c-5.5-4.8-13.4-7.3-23.9-7.3h-44v58.4h41.8c11.7 0 20.3-2.4 25.9-7.3s8.4-12.2 8.4-22c0-9.6-2.7-16.9-8.2-21.8zm-498.2-150.1c-1.3 3.2-3.9 5.8-7.1 7-3.4 1.3-7.3 1.3-10.7 0-3.2-1.2-5.8-3.8-7.1-7-1.4-3.5-1.4-7.5 0-11 1.3-3.2 3.9-5.8 7.1-7 3.4-1.3 7.2-1.3 10.7 0 3.2 1.2 5.8 3.8 7.1 7 1.4 3.6 1.4 7.5 0 11zm-1.7-10.3c-1.1-2.8-3.4-5-6.2-6.1-3-1.1-6.2-1.1-9.2 0-2.8 1.1-5 3.3-6.2 6.1-1.2 3.1-1.2 6.5 0 9.6.6 1.4 1.4 2.7 2.5 3.7s2.3 1.9 3.7 2.4c3 1.1 6.2 1.1 9.2 0 2.8-1.1 5.1-3.3 6.2-6.1 1.2-3.1 1.2-6.5 0-9.6zm-5.7 4.2c-.7.7-1.5 1.3-2.5 1.5l3.3 6.4h-2.3l-3.2-6.2h-3.2v6.2h-2v-15h6.1c1.2-.1 2.4.3 3.4 1 1 .8 1.5 2 1.4 3.2-.1 1.1-.4 2.1-1 2.9zm-1.8-4.7c-.6-.5-1.4-.7-2.2-.6h-4v5h3.8c2.1 0 3.1-.8 3.1-2.5 0-.7-.2-1.4-.7-1.9zM728.5 455.7l-17.1-35.3h-11.7v35.3h-28.6V350.9H718c24.5 0 40.9 9.3 40.9 34.1 0 15.7-7.3 25.5-18.9 30.7l21 40h-32.5zm-11.2-81.2h-17.5v22.9h17.1c9.4 0 13.2-4.2 13.2-11.7-.1-6.5-3.7-11.2-12.8-11.2zm61 81.2V350.9h80.2v24.4H807v13.9h31v24.1h-31v18h52.5v24.4h-81.2zm133.9 0h-34V350.9h36.7c32.9 0 53.9 12.4 53.9 51.8s-19.5 53-56.6 53zm2.5-80h-7.2v55.1h6.3c18.1 0 25.2-6.9 25.2-27.7 0-19.3-6.2-27.4-24.3-27.4zm183.3 80v-41.3h-32.6v41.3h-29.7V350.9h29.7V389h32.6v-38.1h29.6v104.8H1098zm118.5 0l-5.7-18.4h-31.4l-5.7 18.4h-31.1l38-104.8h29.3l38 104.8h-31.4zm-14.6-48.4c-3.8-13.5-5.4-19.2-6.7-26.2-1.3 7-3 12.9-6.7 26.2l-1.9 6.9h17.4l-2.1-6.9zm100.9-31.1v79.5h-29v-79.5h-29.3v-25.3h87.7v25.3h-29.4z" fill="#fff"/></svg>