<svg xmlns="http://www.w3.org/2000/svg" viewBox="0 0 260.7 104.1"><path d="M1 23.4h13.1c5.8 0 9.7 3.5 9.7 8.5 0 3.8-2.3 6.7-5.9 7.9l6.4 12.5h-4.8l-6-11.8H5.3v11.8H1V23.4zm12.7 13.4c3.4 0 5.7-1.9 5.7-4.8s-2.3-4.8-5.7-4.8H5.3v9.6h8.4zm11.8 5C25.5 35.7 30.1 31 36 31s10.2 4.7 10.2 11v1.2H29.6c.6 3.5 3.4 6 7.1 6 2.1 0 4-.7 5.3-1.9l2.6 2.6c-2.5 1.9-5 2.8-8.1 2.8-6.2-.1-11-4.8-11-10.9zM42.1 40c-.6-3.2-3.1-5.6-6.1-5.6-3.1 0-5.7 2.3-6.3 5.6h12.4zm7.1 1.8c0-6.1 4.7-10.8 10.7-10.8 2.3 0 4.5.7 6.3 2.1v-9.7l4.1-.8v29.7h-4.1v-2c-1.7 1.5-4 2.4-6.4 2.4-6-.1-10.6-4.8-10.6-10.9zm17 4.7V37c-1.4-1.6-3.5-2.5-5.9-2.5-4 0-7.1 3.1-7.1 7.2s3.1 7.3 7.1 7.3c2.4 0 4.5-.9 5.9-2.5zm18.1-23.1h4.3v12.4H104V23.4h4.3v28.9H104V39.7H88.6v12.6h-4.3V23.4zm27.9 22.9c0-4 3.2-6.4 8.5-6.4 2 0 4 .4 5.7 1.2v-2.2c0-3-1.8-4.5-5.1-4.5-1.9 0-3.9.5-6.5 1.8l-1.5-3.1c3.2-1.5 5.9-2.1 8.6-2.1 5.5 0 8.6 2.7 8.6 7.5v13.9h-4v-1.8c-1.9 1.5-4 2.2-6.5 2.2-4.6-.2-7.8-2.8-7.8-6.5zm8.7 3.3c2.2 0 4-.6 5.6-2V44c-1.6-.9-3.3-1.3-5.4-1.3-3 0-4.9 1.4-4.9 3.5s1.9 3.4 4.7 3.4zm16.4-2.5V34.7h-4.5v-3.5h4.5v-5.4l4.1-1v6.4h6.2v3.5h-6.2v11.4c0 2.1.9 3 3.1 3 1.2 0 2-.1 3-.5v3.5c-1.1.4-2.7.6-3.9.6-4.1-.1-6.3-2-6.3-5.6zM.7 66.7h11.1C20.4 66.7 27 73 27 81.2s-6.6 14.4-15.3 14.4H.7V66.7zm11 23.6c5.1 0 9.1-4 9.1-9.1s-4-9.2-9.1-9.2H6.6v18.2l5.1.1zm18-5.4c0-6.2 4.9-11.1 11.1-11.1s10.6 4.9 10.6 11.5v1.5H35.5c.7 2.6 3.1 4.5 6 4.5 1.9 0 3.6-.6 4.7-1.7l3.7 3.4c-2.5 2-5.2 3-8.6 3-6.5 0-11.6-4.9-11.6-11.1zm16.2-2.2c-.6-2.6-2.7-4.3-5.2-4.3s-4.6 1.7-5.2 4.3h10.4zm6.2-8.6h6.1l5.9 14.3L70 74.1h6l-9.2 21.5h-5.5l-9.2-21.5zm24.5 10.8c0-6.2 4.9-11.1 11.1-11.1s10.6 4.9 10.6 11.5v1.5H82.4c.7 2.6 3.1 4.5 6 4.5 1.9 0 3.6-.6 4.7-1.7l3.7 3.4c-2.6 2-5.2 3-8.7 3-6.5 0-11.5-4.9-11.5-11.1zm16.1-2.2c-.6-2.6-2.7-4.3-5.2-4.3s-4.6 1.7-5.2 4.3h10.4zm9.1-16l5.7-.9v29.8h-5.7V66.7zm9 18.2c0-6.3 5-11.2 11.5-11.2 6.4 0 11.5 4.9 11.5 11.2s-5 11.1-11.5 11.1c-6.4 0-11.5-4.9-11.5-11.1zm17.5 0c0-3.5-2.6-6.3-6-6.3s-5.9 2.8-5.9 6.3 2.6 6.2 5.9 6.2 6-2.7 6-6.2zm8.9-10.8h5.6v1.8c1.7-1.4 3.8-2.1 6.1-2.1 6.1 0 10.9 4.9 10.9 11.1s-4.9 11-11.1 11c-2.1 0-4.2-.6-5.9-1.7v9.8h-5.7l.1-29.9zm17.1 10.8c0-3.5-2.8-6.2-6.3-6.2-2.1 0-3.9.7-5.1 2.1v8.4c1.2 1.3 3.1 2 5.1 2 3.6-.1 6.3-2.8 6.3-6.3zm8 0c0-6.2 4.9-11.1 11.1-11.1 6.2 0 10.6 4.9 10.6 11.5v1.5h-15.9c.7 2.6 3.1 4.5 6 4.5 1.9 0 3.6-.6 4.7-1.7l3.7 3.4c-2.6 2.1-5.3 3.1-8.7 3.1-6.4-.1-11.5-5-11.5-11.2zm16.2-2.2c-.6-2.6-2.7-4.3-5.2-4.3s-4.6 1.7-5.2 4.3h10.4zm9-8.6h5.7v2.4c1.4-1.9 3.3-2.9 5.7-2.9 1.2 0 1.8.2 2.4.5V79c-.8-.4-1.9-.6-2.9-.6-2.2 0-4.1 1.2-5.2 3.2v13.9h-5.7V74.1z" fill="#FFF"/><path fill="#E00" d="M114.9 13.2c-.3-.2-.9-.6-1.7-.5-.8 0-1.6.4-2 1.1-.1.1-.1.2-.2.3-.5.7-.6 1.5-.4 2.2.1.3.2.6.3.8.1.2.3.4.5.5.1.1.2.1.2.2 0 0 .1.1.2.1.2.1.3.2.5.2.2.1.5.1.8.1.4 0 .7-.1 1.1-.3.3-.2.6-.4.8-.6.1-.1.2-.3.4-.4 1-1.5.4-3-.5-3.7z"/><path fill="#82C299" d="M153.6 56c-1.1.7-2.3 1.3-3.5 1.9-1.2.5-2.4 1-3.7 1.4-1.4.4-2.2 1.8-1.8 3.2.3 1.1 1.4 1.9 2.5 1.9.2 0 .5 0 .7-.1 1.5-.4 3-1 4.4-1.6s2.8-1.4 4.1-2.2c1.2-.8 1.6-2.4.8-3.6-.7-1.3-2.3-1.6-3.5-.9z"/><path fill="#E00" d="M169.3 24.5c.7 0 1.3-.3 1.8-.8 1-1 1-2.6 0-3.6l-6-6c-1-1-2.6-1-3.6 0s-1 2.6 0 3.6l6 6c.5.5 1.1.8 1.8.8zm-15.1-14.1c.8 0 1.6-.4 2.1-1.1.8-1.2.5-2.8-.7-3.6C150 1.8 144.2 0 137.8 0S125 1.9 119.6 5.4c-1.2.8-1.5 2.4-.7 3.6s2.4 1.5 3.6.7c4.6-3 9.9-4.6 15.3-4.6s10.2 1.5 15 4.8c.4.3.9.5 1.4.5z"/><path fill="#82C299" d="M196.2 13.8l-1.5 1.5c-7.5 7.6-15.1 15.3-22.4 22.7-3.3 3.3-6.6 6.7-9.8 10-1 1-1 2.6 0 3.6.5.5 1.2.7 1.8.7s1.3-.3 1.8-.8c3.3-3.3 6.6-6.7 9.8-10 7.3-7.4 14.9-15.1 22.4-22.7l1.5-1.5c1-1 1-2.6 0-3.6-1-.9-2.6-.9-3.6.1z"/><path fill="#FAAA4F" d="M242.6 6.1C237 2.1 230.4 0 223.4 0c-6.5 0-12.1 1.8-17.7 5.6-1.2.8-1.5 2.4-.7 3.6s2.4 1.5 3.6.7c4.7-3.2 9.4-4.7 14.8-4.7 5.9 0 11.5 1.8 16.2 5.2.5.3 1 .5 1.5.5.8 0 1.6-.4 2.1-1.1.9-1.2.6-2.8-.6-3.7z"/><path fill="#E00" d="M250.9 14.6c-.8-1.2-2.4-1.5-3.6-.7-1.2.8-1.5 2.4-.7 3.6 3.1 4.6 4.8 10 4.8 15.7s-1.6 10.9-4.7 15.5c-.8 1.2-.5 2.8.7 3.6.4.3.9.4 1.4.4.8 0 1.6-.4 2.2-1.1 3.6-5.4 5.5-11.8 5.5-18.4s-1.8-13.1-5.6-18.6z"/><path fill="#4CB6D6" d="M239.1 56.4c-4.6 3.1-10 4.8-15.7 4.8s-10.5-1.5-15-4.3c-1.2-.8-2.8-.4-3.6.8s-.4 2.8.8 3.6c5.3 3.4 11.4 5.1 17.7 5.1 6.6 0 13.1-2 18.6-5.7 1.2-.8 1.5-2.4.7-3.6-.7-1.2-2.3-1.5-3.5-.7zm-45.3-13.7c-1-1-2.6-1.1-3.6-.1s-1.1 2.6-.1 3.6l5.7 5.9c.5.5 1.2.8 1.9.8.6 0 1.3-.2 1.8-.7 1-1 1.1-2.6.1-3.6l-5.8-5.9z"/></svg>