<svg id="Layer_1" data-name="Layer 1" xmlns="http://www.w3.org/2000/svg" viewBox="0 0 2404.89 953.35"><defs><style>.cls-1,.cls-2,.cls-3,.cls-4,.cls-6,.cls-7,.cls-8{fill:none;stroke-miterlimit:10;stroke-width:16.51px}.cls-1{stroke:#0088ce}.cls-2{stroke:#c00}.cls-3{stroke:#f0ab00}.cls-4{stroke:#3f9c35}.cls-6{stroke:#92d400}.cls-7{stroke:#00b9e4}.cls-8{stroke:#820000}</style></defs><path class="cls-1" d="M1065.05 253.79h513.72"/><path class="cls-2" d="M1192.79 402.38h711.02"/><path class="cls-3" d="M1652.4 625.27a46.43 46.43 0 0 0 32.83-13.6l47.09-47.09a46.43 46.43 0 0 1 32.83-13.6h17.91m-984.39 74.29h27.2a46.43 46.43 0 0 0 32.83-13.6l121.39-121.39a46.43 46.43 0 0 1 32.83-13.6h73.63"/><path class="cls-4" d="M44.6 105.2h27.2a46.43 46.43 0 0 1 32.83 13.6L226 240.19a46.43 46.43 0 0 0 32.83 13.6h73.63"/><path class="cls-3" d="M928.69 476.68h138.64a46.43 46.43 0 0 1 32.83 13.6l47.09 47.09a46.43 46.43 0 0 0 32.83 13.6h843.79a46.43 46.43 0 0 0 32.83-13.6l47.09-47.09a46.43 46.43 0 0 1 32.83-13.6h17.91"/><path d="M0 476.68h343a46.43 46.43 0 0 1 32.83 13.6l47.09 47.09a46.43 46.43 0 0 0 32.8 13.63h17.91M0 551h677.28a46.43 46.43 0 0 1 32.83 13.6l47.09 47.09a46.43 46.43 0 0 0 32.8 13.58h36.49" stroke="#ec7a08" fill="none" stroke-miterlimit="10" stroke-width="16.51"/><path class="cls-2" d="M724.95 402.38h676.38a46.43 46.43 0 0 0 32.83-13.6m0 0l47.09-47.09a46.43 46.43 0 0 1 32.83-13.6h27.2"/><path class="cls-6" d="M1518.07 193.1l121.39 121.39a46.43 46.43 0 0 0 32.83 13.6h36.49"/><path class="cls-2" d="M733 402.38H383.63"/><path class="cls-7" d="M558.31 253.79h101.5a46.43 46.43 0 0 1 32.83 13.6l47.09 47.09a46.43 46.43 0 0 0 32.83 13.6h1037.72a46.43 46.43 0 0 1 32.83 13.6l121.39 121.4a46.43 46.43 0 0 0 32.83 13.6h17.91"/><path class="cls-6" d="M1308.79 699.56a46.43 46.43 0 0 0 32.83-13.6l32.83-32.83"/><path class="cls-8" d="M306.47 402.38h82.92a46.43 46.43 0 0 0 32.83-13.6l121.39-121.39a46.43 46.43 0 0 1 32.83-13.6h45.77"/><path class="cls-1" d="M0 328.09h296.52a46.43 46.43 0 0 0 32.83-13.6l47.09-47.09a46.43 46.43 0 0 1 32.83-13.6h17.93"/><path class="cls-4" d="M0 773.86h420.43a46.43 46.43 0 0 0 32.83-13.6l47.09-47.09a46.43 46.43 0 0 1 32.83-13.6h27.2"/><path class="cls-3" d="M1253.73 551h120.07a46.43 46.43 0 0 1 32.83 13.6l47.09 47.09a46.43 46.43 0 0 0 32.83 13.6h138.65"/><path class="cls-4" d="M74.29 773.86h55.06a46.43 46.43 0 0 1 32.83 13.6l47.09 47.09a46.43 46.43 0 0 0 32.83 13.6h110.8"/><path class="cls-6" d="M882.25 699.56h92.21A46.43 46.43 0 0 0 1007.3 686l47.09-47.09a46.43 46.43 0 0 1 32.83-13.6h64.35M197.83 105.2H290a46.43 46.43 0 0 1 32.83 13.6L370 165.9a46.43 46.43 0 0 0 32.83 13.6h64.35"/><path class="cls-1" d="M0 848.15h872.31a46.43 46.43 0 0 0 32.83-13.6l47.09-47.09a46.43 46.43 0 0 1 32.83-13.6h45.77"/><path class="cls-7" d="M579 699.56h17.91a46.43 46.43 0 0 1 32.83 13.6l47.09 47.09a46.43 46.43 0 0 0 32.83 13.6h524.85a46.43 46.43 0 0 0 32.83-13.6l121.39-121.39a46.43 46.43 0 0 1 32.83-13.6h17.91"/><path class="cls-4" d="M0 105.2h816.58a46.43 46.43 0 0 1 32.83 13.6l47.09 47.09a46.43 46.43 0 0 0 32.83 13.6h27.2"/><path class="cls-3" d="M0 625.27h1652.4"/><path class="cls-6" d="M0 699.56h1308.79"/><path class="cls-1" d="M0 253.79h1071.62a46.43 46.43 0 0 0 32.83-13.6l47.09-47.09a46.43 46.43 0 0 1 32.83-13.6h17.91"/><path class="cls-6" d="M455.27 179.5h1030a46.43 46.43 0 0 1 32.83 13.6"/><path class="cls-8" d="M306.47 402.38H0"/><path class="cls-2" d="M2404.89 476.68H622.22a46.43 46.43 0 0 1-32.83-13.6L542.29 416a46.43 46.43 0 0 0-32.83-13.6"/></svg>